<?xml version="1.0" encoding="utf-8"?>
<!DOCTYPE svg PUBLIC "-//W3C//DTD SVG 20010904//EN" "http://www.w3.org/TR/2001/REC-SVG-20010904/DTD/svg10.dtd">
<svg version="1.0" width="960pt" height="56.25pt" viewBox="0 0 960 56.25" preserveAspectRatio="xMidYMid meet" xmlns="http://www.w3.org/2000/svg">
  <g transform="translate(0,56.25)scale(.075,.075)">
    <path id="path1" d="M 8230 -670 c -36 0 -41 4 -65 44 -14 24 -30 59 -35 78 -6 18 -10 105 -10 193 0 88 5 178 11 199 6 22 22 56 36 78 22 33 31 38 64 38 l 38 0 -35 -66 -34 -65 0 -184 0 -184 34 -65 35 -66 -39 0 z M 9261 -668 c -23 -2 -41 1 -41 7 0 5 5 13 11 17 6 3 22 30 35 58 22 48 24 62 24 231 0 169 -2 183 -24 231 -13 28 -29 55 -35 58 -6 4 -11 12 -11 17 0 6 18 9 41 7 39 -3 44 -7 73 -58 l 31 -55 0 -200 0 -200 -31 -55 c -29 -51 -34 -55 -73 -58 z M 141 -590 l -101 0 0 235 0 235 40 0 40 0 0 -85 0 -85 40 0 c 22 0 56 -6 74 -14 18 -8 41 -24 50 -37 12 -17 16 -46 16 -107 0 -79 -2 -85 -29 -113 -29 -28 -32 -29 -130 -29 z m 29 70 l 50 0 0 74 c 0 58 -3 75 -16 80 -9 3 -31 6 -50 6 l -34 0 0 -80 0 -80 50 0 z M 494 -590 l -94 0 0 235 0 235 40 0 40 0 0 -90 c 0 -87 1 -90 22 -90 19 0 29 15 62 90 l 39 90 38 0 c 22 0 39 -4 39 -9 0 -5 -18 -48 -40 -96 l -40 -87 25 -30 c 22 -26 25 -39 25 -113 0 -81 -1 -84 -31 -109 -28 -24 -38 -26 -125 -26 z m 31 70 c 43 0 44 1 51 35 3 19 3 51 0 70 -7 34 -8 35 -51 35 l -45 0 0 -70 0 -70 45 0 z M 905 -590 c -49 0 -78 5 -94 16 -13 9 -29 32 -37 50 -10 23 -14 76 -14 169 0 93 4 146 14 169 8 18 24 41 37 50 16 11 45 16 94 16 49 0 78 -5 94 -16 13 -9 29 -32 37 -50 10 -23 14 -76 14 -169 0 -93 -4 -146 -14 -169 -8 -18 -24 -41 -37 -50 -16 -11 -45 -16 -94 -16 z m 0 70 c 23 0 46 5 53 12 8 8 12 57 12 153 0 96 -4 145 -12 153 -7 7 -30 12 -53 12 -23 0 -46 -5 -53 -12 -8 -8 -12 -57 -12 -153 0 -96 4 -145 12 -153 7 -7 30 -12 53 -12 z M 1270 -590 l -140 0 0 35 0 35 50 0 50 0 0 200 0 200 40 0 40 0 0 -200 0 -200 50 0 50 0 0 -35 0 -35 -140 0 z M 1635 -590 c -62 0 -78 4 -100 22 -14 13 -30 41 -35 63 -5 22 -10 89 -10 150 0 61 5 128 10 150 5 22 21 50 35 63 22 18 38 22 100 22 68 0 77 -2 107 -29 l 33 -29 0 -177 0 -177 -33 -29 c -30 -27 -39 -29 -107 -29 z m -2 70 c 24 0 48 5 55 12 8 8 12 57 12 153 0 96 -4 145 -12 153 -7 7 -31 12 -55 12 -32 0 -45 -5 -53 -19 -5 -11 -10 -77 -10 -146 0 -69 5 -135 10 -146 8 -14 21 -19 53 -19 z M 2364 -590 l -145 0 3 32 c 3 32 4 33 56 36 l 52 3 0 200 0 199 40 0 40 0 0 -200 0 -200 50 0 50 0 0 -35 0 -35 -146 0 z M 2730 -590 l -120 0 0 235 0 235 120 0 120 0 0 -35 0 -35 -80 0 -80 0 0 -70 0 -70 75 0 75 0 0 -35 0 -35 -75 0 -75 0 0 -60 0 -60 80 0 80 0 0 -35 0 -35 -120 0 z M 3138 -590 c -61 0 -90 4 -107 16 -13 9 -29 32 -37 50 -10 23 -14 76 -14 169 0 93 4 146 14 169 8 18 24 41 37 50 17 12 46 16 107 16 l 83 0 -3 -32 -3 -33 -65 -3 c -35 -2 -70 -8 -77 -14 -10 -8 -13 -49 -13 -153 0 -104 3 -145 13 -153 7 -6 42 -12 77 -14 l 65 -3 3 -33 3 -32 -83 0 z M 3370 -590 l -40 0 0 235 0 235 40 0 40 0 0 -105 0 -105 55 0 55 0 0 105 0 105 40 0 40 0 0 -235 0 -235 -40 0 -40 0 0 95 0 95 -55 0 -55 0 0 -95 0 -95 -40 0 z M 4185 -590 l -95 0 0 35 c 0 31 3 35 25 35 l 25 0 0 165 0 165 -25 0 c -22 0 -25 4 -25 35 l 0 35 95 0 95 0 0 -35 c 0 -32 -2 -35 -30 -35 l -30 0 0 -165 0 -165 30 0 c 28 0 30 -3 30 -35 l 0 -35 -95 0 z M 5010 -590 l -40 0 0 65 0 65 -55 0 c -31 0 -69 7 -85 15 -20 10 -32 27 -39 53 -6 20 -11 66 -11 102 0 36 5 82 10 102 6 21 21 44 33 53 16 11 48 15 124 15 l 103 0 0 -235 0 -235 -40 0 z m -90 200 l 51 0 -3 98 -3 97 -50 0 -50 0 -3 -84 c -2 -46 -1 -90 2 -98 4 -8 23 -13 56 -13 z M 6745 -590 l -46 0 3 38 c 3 36 4 37 43 37 39 0 40 -1 43 -37 l 3 -38 -46 0 z M 10016 -590 l -146 0 0 35 0 35 50 0 50 0 0 200 0 200 40 0 40 0 0 -199 0 -200 52 -3 c 52 -3 53 -4 56 -36 l 3 -32 -145 0 z M 11475 -590 l -46 0 3 38 c 3 36 4 37 43 37 39 0 40 -1 43 -37 l 3 -38 -46 0 z M 12520 -590 l -90 0 0 35 0 35 50 0 50 0 0 183 c 0 165 2 186 18 200 14 13 38 17 96 17 l 77 0 -3 -32 c -3 -32 -4 -33 -56 -36 l -52 -3 0 -200 0 -199 -90 0 z M 6000 -540 l -40 0 0 40 c 0 38 -2 40 -30 40 -28 0 -30 3 -30 35 0 32 2 35 30 35 l 30 0 0 113 c 0 106 2 115 23 135 19 18 35 22 85 22 l 62 0 0 -35 c 0 -35 0 -35 -45 -35 l -45 0 0 -100 0 -100 45 0 c 45 0 45 0 45 -35 0 -35 0 -35 -45 -35 l -45 0 0 -40 0 -40 -40 0 z M 8545 -540 c -34 0 -35 1 -35 40 0 39 -1 40 -36 40 -34 0 -35 1 -32 32 3 29 7 33 36 36 l 32 3 0 115 c 0 101 2 116 20 134 16 16 33 20 85 20 l 65 0 0 -35 0 -35 -50 0 -50 0 0 -100 0 -100 50 0 50 0 0 -35 0 -35 -50 0 -50 0 0 -40 c 0 -39 -1 -40 -35 -40 z M 4521 -459 l -101 0 0 170 0 169 40 0 39 0 3 -132 3 -133 45 0 45 0 3 133 3 132 39 0 40 0 0 -141 0 -141 -29 -29 c -28 -28 -32 -29 -130 -28 z M 5190 -460 l -40 0 0 108 c 1 59 5 127 9 152 6 26 18 52 31 62 18 15 41 18 121 18 l 99 0 0 -170 0 -170 -40 0 -39 0 -3 132 -3 133 -39 3 c -24 2 -42 -2 -47 -10 -5 -7 -9 -68 -9 -136 l 0 -122 -40 0 z M 5670 -460 c -73 0 -83 3 -105 25 -20 19 -25 34 -25 73 0 34 6 57 19 73 13 16 33 24 67 28 47 6 49 8 52 39 l 3 32 -70 0 -71 0 0 35 0 35 75 0 c 41 0 85 -5 99 -11 13 -7 30 -25 37 -40 6 -16 9 -48 6 -71 -3 -22 -15 -50 -26 -61 -11 -11 -39 -23 -63 -26 -38 -5 -43 -9 -46 -33 -3 -27 -2 -27 60 -30 l 63 -3 3 -33 3 -32 -81 0 z M 6380 -460 l -120 0 0 35 c 0 28 4 35 20 35 19 0 20 7 20 100 0 93 -1 100 -20 100 -16 0 -20 7 -20 35 l 0 35 95 0 95 0 0 -35 c 0 -33 -2 -35 -35 -35 l -35 0 0 -88 c 0 -55 4 -92 12 -100 7 -7 34 -12 60 -12 l 48 0 0 -35 0 -35 -120 0 z M 6695 -460 l -85 0 0 35 0 35 50 0 50 0 0 135 0 135 85 0 85 0 0 -35 0 -35 -50 0 -50 0 0 -135 0 -135 -85 0 z M 7107 -460 c -58 0 -71 3 -91 23 -17 17 -26 40 -31 85 -4 34 -4 88 0 120 3 31 12 64 18 73 7 9 22 21 34 27 12 7 58 12 103 12 l 81 0 -3 -32 -3 -33 -70 -3 c -40 -2 -73 -8 -77 -15 -4 -7 -8 -22 -8 -35 0 -21 3 -22 90 -22 l 90 0 0 -48 c 0 -26 -5 -64 -10 -84 -6 -21 -21 -44 -33 -53 -14 -10 -45 -15 -90 -15 z m 7 72 c 36 3 41 6 44 30 3 27 2 28 -47 28 -37 0 -51 -4 -51 -14 0 -8 3 -22 6 -31 5 -12 17 -15 48 -13 z M 7496 -460 c -59 0 -78 4 -100 21 -22 17 -26 28 -26 74 0 37 6 60 19 76 13 16 33 24 67 28 47 6 49 8 52 39 l 3 32 -70 0 -71 0 0 35 0 35 75 0 c 41 0 85 -5 99 -11 13 -7 30 -25 37 -40 6 -17 9 -48 6 -72 -4 -28 -14 -49 -32 -64 -16 -14 -39 -23 -59 -23 -19 0 -39 -7 -46 -15 -7 -8 -10 -22 -6 -30 4 -11 21 -15 66 -15 l 60 0 0 -35 0 -35 -74 0 z M 8844 -460 l -74 0 0 170 0 170 35 0 35 0 0 -128 c 0 -70 4 -133 9 -141 5 -8 16 -11 25 -8 14 5 16 27 16 142 l 0 135 40 0 39 0 3 -137 c 3 -122 5 -138 20 -141 16 -3 18 9 18 137 l 0 141 41 0 41 0 -4 -151 c -3 -144 -4 -152 -27 -170 -13 -10 -39 -19 -58 -19 -19 0 -43 5 -53 10 -13 7 -21 7 -25 0 -3 -5 -40 -10 -81 -10 z M 10375 -460 c -53 0 -69 4 -92 24 -26 23 -28 30 -32 111 -1 47 0 102 4 121 3 20 17 47 30 60 22 22 33 24 110 24 l 85 0 0 -35 0 -34 -72 -3 -73 -3 -3 -33 -3 -32 85 0 86 0 0 -65 c 0 -38 -6 -78 -15 -94 -8 -16 -22 -31 -30 -35 -9 -3 -45 -6 -80 -6 z m 10 72 c 35 3 40 6 43 30 3 27 2 28 -47 28 -47 0 -51 -2 -51 -23 0 -13 3 -27 7 -31 4 -4 25 -6 48 -4 z M 10740 -459 l -120 0 0 34 c 0 31 3 35 25 35 l 25 0 0 100 0 100 -25 0 c -22 0 -25 4 -25 35 l 0 35 101 0 100 0 -3 -32 c -3 -29 -7 -33 -36 -36 l -33 -3 3 -97 3 -97 53 -3 c 52 -3 52 -3 52 -37 l 0 -34 -120 0 z M 11021 -460 l -71 0 0 170 0 170 40 0 39 0 3 -138 c 3 -114 6 -137 18 -137 12 0 15 23 18 137 l 3 138 39 0 39 0 3 -137 c 3 -122 5 -138 20 -141 16 -3 18 9 18 137 l 0 141 40 0 40 0 0 -145 c 0 -142 -1 -147 -25 -170 -17 -18 -35 -25 -64 -25 -22 0 -43 5 -46 10 -4 7 -12 7 -25 0 -10 -5 -50 -10 -89 -10 z M 11425 -460 l -85 0 0 35 0 35 50 0 50 0 0 135 0 135 85 0 85 0 0 -35 0 -35 -50 0 -50 0 0 -135 0 -135 -85 0 z M 11811 -460 l -101 0 0 170 0 170 40 0 39 0 3 -132 3 -133 47 -3 48 -3 0 135 0 136 40 0 40 0 0 -141 0 -141 -29 -29 c -29 -28 -32 -29 -130 -29 z M 12165 -460 l -75 0 0 35 0 34 72 3 c 67 3 73 5 76 26 3 20 0 22 -48 22 -28 0 -64 7 -80 15 -20 10 -33 28 -41 54 -6 22 -9 55 -5 76 4 20 16 45 26 55 18 18 34 20 140 19 l 120 0 0 -30 c 0 -19 -5 -29 -15 -29 -12 0 -15 -17 -15 -94 0 -51 -5 -107 -11 -125 -6 -18 -24 -38 -40 -46 -17 -9 -57 -15 -104 -15 z m 37 190 c 38 0 38 0 38 40 l 0 40 -50 0 c -48 0 -50 -1 -50 -28 0 -15 5 -33 12 -40 7 -7 29 -12 50 -12 z M 2007 -370 c -63 0 -117 3 -120 7 -4 3 -7 19 -7 35 l 0 28 120 0 120 0 0 -35 0 -35 -113 0 z " />
  </g>
</svg>